HIERARCHY
ROOT hip
{
  OFFSET 0 0 0
  CHANNELS 6 Xposition Yposition Zposition Zrotation Yrotation Xrotation
  JOINT abdomen
  {
    OFFSET 0 20.6881 -0.73152
    CHANNELS 3 Zrotation Xrotation Yrotation
    JOINT chest
    {
      OFFSET 0 11.7043 -0.48768
      CHANNELS 3 Zrotation Xrotation Yrotation
      JOINT neck
      {
        OFFSET 0 22.1894 -2.19456
        CHANNELS 3 Zrotation Xrotation Yrotation
        JOINT head
        {
          OFFSET -0.24384 7.07133 1.2192
          CHANNELS 3 Zrotation Xrotation Yrotation
          JOINT leftEye
          {
            OFFSET 4.14528 8.04674 8.04672
            CHANNELS 3 Zrotation Xrotation Yrotation
            End Site
            {
              OFFSET 1 0 0
            }
          }
          JOINT rightEye
          {
            OFFSET -3.6576 8.04674 8.04672
            CHANNELS 3 Zrotation Xrotation Yrotation
            End Site
            {
              OFFSET 1 0 0
            }
          }
        }
      }
      JOINT rCollar
      {
        OFFSET -2.68224 19.2634 -4.8768
        CHANNELS 3 Zrotation Xrotation Yrotation
        JOINT rShldr
        {
          OFFSET -8.77824 -1.95073 1.46304
          CHANNELS 3 Zrotation Xrotation Yrotation
          JOINT rForeArm
          {
            OFFSET -28.1742 -1.7115 0.48768
            CHANNELS 3 Zrotation Xrotation Yrotation
            JOINT rHand
            {
              OFFSET -22.5879 0.773209 7.07136
              CHANNELS 3 Zrotation Xrotation Yrotation
              JOINT rThumb1
              {
                OFFSET -1.2192 -0.487915 3.41376
                CHANNELS 3 Zrotation Xrotation Yrotation
                JOINT rThumb2
                {
                  OFFSET -3.37035 -0.52449 3.41376
                  CHANNELS 3 Zrotation Xrotation Yrotation
                  End Site
                  {
                    OFFSET -1.78271 -1.18214 1.43049
                  }
                }
              }
              JOINT rIndex1
              {
                OFFSET -7.75947 0.938293 5.60832
                CHANNELS 3 Zrotation Xrotation Yrotation
                JOINT rIndex2
                {
                  OFFSET -2.54057 -0.884171 1.56538
                  CHANNELS 3 Zrotation Xrotation Yrotation
                  End Site
                  {
                    OFFSET -1.62519 -0.234802 1.16502
                  }
                }
              }
              JOINT rMid1
              {
                OFFSET -8.24714 1.18213 3.41376
                CHANNELS 3 Zrotation Xrotation Yrotation
                JOINT rMid2
                {
                  OFFSET -3.10165 -0.590103 1.0647
                  CHANNELS 3 Zrotation Xrotation Yrotation
                  End Site
                  {
                    OFFSET -2.48547 -0.328903 0.83742
                  }
                }
              }
              JOINT rRing1
              {
                OFFSET -8.82822 0.546677 1.51678
                CHANNELS 3 Zrotation Xrotation Yrotation
                JOINT rRing2
                {
                  OFFSET -2.60934 -0.819778 -0.0198488
                  CHANNELS 3 Zrotation Xrotation Yrotation
                  End Site
                  {
                    OFFSET -2.33842 -0.294052 0.168128
                  }
                }
              }
              JOINT rPinky1
              {
                OFFSET -8.27202 -0.0477905 -0.4584
                CHANNELS 3 Zrotation Xrotation Yrotation
                JOINT rPinky2
                {
                  OFFSET -1.82734 -0.647385 -0.700984
                  CHANNELS 3 Zrotation Xrotation Yrotation
                  End Site
                  {
                    OFFSET -1.69225 -0.51767 -0.607171
                  }
                }
              }
            }
          }
        }
      }
      JOINT lCollar
      {
        OFFSET 2.68224 19.2634 -4.8768
        CHANNELS 3 Zrotation Xrotation Yrotation
        JOINT lShldr
        {
          OFFSET 8.77824 -1.95073 1.46304
          CHANNELS 3 Zrotation Xrotation Yrotation
          JOINT lForeArm
          {
            OFFSET 28.1742 -1.7115 0.48768
            CHANNELS 3 Zrotation Xrotation Yrotation
            JOINT lHand
            {
              OFFSET 22.5879 0.773209 7.07136
              CHANNELS 3 Zrotation Xrotation Yrotation
              JOINT lThumb1
              {
                OFFSET 1.2192 -0.487915 3.41376
                CHANNELS 3 Zrotation Xrotation Yrotation
                JOINT lThumb2
                {
                  OFFSET 3.37035 -0.52449 3.41376
                  CHANNELS 3 Zrotation Xrotation Yrotation
                  End Site
                  {
                    OFFSET 1.78271 -1.18214 1.43049
                  }
                }
              }
              JOINT lIndex1
              {
                OFFSET 7.75947 0.938293 5.60832
                CHANNELS 3 Zrotation Xrotation Yrotation
                JOINT lIndex2
                {
                  OFFSET 2.54057 -0.884171 1.56538
                  CHANNELS 3 Zrotation Xrotation Yrotation
                  End Site
                  {
                    OFFSET 1.62519 -0.234802 1.16502
                  }
                }
              }
              JOINT lMid1
              {
                OFFSET 8.24714 1.18213 3.41376
                CHANNELS 3 Zrotation Xrotation Yrotation
                JOINT lMid2
                {
                  OFFSET 3.10165 -0.590103 1.0647
                  CHANNELS 3 Zrotation Xrotation Yrotation
                  End Site
                  {
                    OFFSET 2.48547 -0.328903 0.83742
                  }
                }
              }
              JOINT lRing1
              {
                OFFSET 8.82822 0.546677 1.51678
                CHANNELS 3 Zrotation Xrotation Yrotation
                JOINT lRing2
                {
                  OFFSET 2.60934 -0.819778 -0.0198488
                  CHANNELS 3 Zrotation Xrotation Yrotation
                  End Site
                  {
                    OFFSET 2.33842 -0.294052 0.168128
                  }
                }
              }
              JOINT lPinky1
              {
                OFFSET 8.27202 -0.0477905 -0.4584
                CHANNELS 3 Zrotation Xrotation Yrotation
                JOINT lPinky2
                {
                  OFFSET 1.82734 -0.647385 -0.700984
                  CHANNELS 3 Zrotation Xrotation Yrotation
                  End Site
                  {
                    OFFSET 1.69225 -0.51767 -0.607171
                  }
                }
              }
            }
          }
        }
      }
    }
  }
  JOINT rButtock
  {
    OFFSET -8.77824 4.35084 1.2192
    CHANNELS 3 Zrotation Xrotation Yrotation
    JOINT rThigh
    {
      OFFSET 0 -1.70687 -2.19456
      CHANNELS 3 Zrotation Xrotation Yrotation
      JOINT rShin
      {
        OFFSET 0 -36.8199 0.73152
        CHANNELS 3 Zrotation Xrotation Yrotation
        JOINT rFoot
        {
          OFFSET 0.73152 -45.1104 -5.12064
          CHANNELS 3 Zrotation Xrotation Yrotation
          End Site
          {
            OFFSET -1.1221 -3.69964 12.103
          }
        }
      }
    }
  }
  JOINT lButtock
  {
    OFFSET 8.77824 4.35084 1.2192
    CHANNELS 3 Zrotation Xrotation Yrotation
    JOINT lThigh
    {
      OFFSET 0 -1.70687 -2.19456
      CHANNELS 3 Zrotation Xrotation Yrotation
      JOINT lShin
      {
        OFFSET 0 -36.8199 0.73152
        CHANNELS 3 Zrotation Xrotation Yrotation
        JOINT lFoot
        {
          OFFSET -0.73152 -45.1104 -5.12064
          CHANNELS 3 Zrotation Xrotation Yrotation
          End Site
          {
            OFFSET 1.1221 -3.69964 12.103
          }
        }
      }
    }
  }
}
MOTION
Frames:	5
Frame Time:	0.03333
-0.0631999981123954 78.14980149269104 0.13000000035390258 0.07919034361839294 3.291969060897827 4.886301517486572 -5.965133190155029 7.447560787200928 8.432552337646484 1.2346926927566528 -6.421078205108643 2.351145029067993 -6.182939529418945 11.662071228027344 -6.32547664642334 7.402400970458984 -23.015602111816406 -10.54060173034668 -0.0 0.0 -0.0 -0.0 0.0 -0.0 0.0 0.0 0.0 -18.566892623901367 40.21091079711914 83.12808990478516 -28.423397064208984 -34.9047966003418 75.18659210205078 -0.011296244338154793 -3.0338120460510254 -0.426574170589447 0.0 0.0 0.0 0.0 0.0 0.0 0.0 0.0 0.0 7.730902194976807 5.47491455078125 0.4173222780227661 0.0 0.0 0.0 2.905566453933716 0.9650754332542419 0.10300818830728531 0.0 0.0 0.0 10.278596878051758 0.7318810820579529 0.026273518800735474 0.0 0.0 0.0 2.221662998199463 -0.7334509491920471 -0.20832103490829468 0.0 0.0 0.0 -46.72120666503906 57.06591033935547 -23.913997650146484 28.110403060913086 -39.78739929199219 -83.5414047241211 0.09282080084085464 -8.657954216003418 1.2261360883712769 -0.0 -0.0 -0.0 -0.0 -0.0 -0.0 -0.0 -0.0 -0.0 -7.730902194976807 5.47491455078125 -0.4173222780227661 -0.0 -0.0 -0.0 -2.905566453933716 0.9650754332542419 -0.10300818830728531 -0.0 -0.0 -0.0 -10.278596878051758 0.7318810820579529 -0.026273518800735474 -0.0 -0.0 -0.0 -2.221662998199463 -0.7334509491920471 0.20832103490829468 -0.0 0.0 -0.0 2.887706995010376 -35.263301849365234 -1.5244994163513184 -0.7029151916503906 52.68400955200195 1.1341160535812378 0.31180328130722046 -17.234188079833984 1.3464306592941284 0.0 0.0 0.0 -10.7994966506958 -34.207698822021484 -9.564948081970215 0.5782882571220398 50.86842727661133 -1.143135666847229 3.609421491622925 -16.230201721191406 8.520891189575195
-0.13439999893307686 78.09889912605286 0.26500000385567546 0.04006018117070198 3.19490385055542 4.873585224151611 -5.9363694190979 7.292661190032959 8.534908294677734 1.2650216817855835 -6.385870933532715 2.3834917545318604 -6.227970123291016 11.654415130615234 -6.355087757110596 7.3591413497924805 -22.75979232788086 -10.614394187927246 -0.0 0.0 -0.0 -0.0 0.0 -0.0 -0.0 0.0 -0.0 -19.573896408081055 40.5756950378418 84.3001937866211 -28.428913116455078 -35.179901123046875 75.64480590820312 -0.00612290995195508 -2.2326908111572266 -0.31421422958374023 -0.0 -0.0 -0.0 -0.0 -0.0 -0.0 -0.0 -0.0 -0.0 7.730902194976807 5.47491455078125 0.4173222780227661 -0.0 -0.0 -0.0 2.905566453933716 0.9650754332542419 0.10300818830728531 -0.0 -0.0 -0.0 10.278596878051758 0.7318810820579529 0.026273518800735474 -0.0 -0.0 -0.0 2.221662998199463 -0.7334509491920471 -0.20832103490829468 -0.0 0.0 -0.0 -48.07440185546875 57.9530029296875 -21.695594787597656 28.03199577331543 -40.24099349975586 -84.35579681396484 0.06863056123256683 -7.454445838928223 1.0534875392913818 -0.0 -0.0 -0.0 -0.0 -0.0 -0.0 -0.0 -0.0 -0.0 -7.730902194976807 5.47491455078125 -0.4173222780227661 -0.0 -0.0 -0.0 -2.905566453933716 0.9650754332542419 -0.10300818830728531 -0.0 -0.0 -0.0 -10.278596878051758 0.7318810820579529 -0.026273518800735474 -0.0 -0.0 -0.0 -2.221662998199463 -0.7334509491920471 0.20832103490829468 -0.0 0.0 -0.0 3.0420331954956055 -35.12899398803711 -1.409407615661621 -0.704585611820221 52.68498992919922 1.1357285976409912 0.30599692463874817 -17.40778923034668 1.3257406949996948 0.0 0.0 0.0 -10.635494232177734 -34.19509506225586 -9.382761001586914 0.5884881615638733 51.03948211669922 -1.1531327962875366 3.6503608226776123 -16.386598587036133 8.569178581237793
-0.18419999978505075 78.05799841880798 0.42200000025331974 -0.10198561102151871 3.177241802215576 4.803735733032227 -5.794973373413086 7.166632175445557 8.617753028869629 1.1916168928146362 -6.4453558921813965 2.4072036743164062 -6.2548322677612305 11.646717071533203 -6.3782758712768555 7.38591194152832 -22.412004470825195 -10.666987419128418 -0.0 0.0 -0.0 -0.0 0.0 -0.0 -0.0 0.0 -0.0 -20.49929428100586 41.023006439208984 85.5228042602539 -28.43199920654297 -35.405704498291016 76.01860046386719 -0.004344652872532606 -1.8801305294036865 -0.2647768259048462 -0.0 0.0 0.0 -0.0 0.0 0.0 -0.0 0.0 0.0 7.730902194976807 5.47491455078125 0.4173222780227661 -0.0 0.0 0.0 2.905566453933716 0.9650754332542419 0.10300818830728531 -0.0 0.0 0.0 10.278596878051758 0.7318810820579529 0.026273518800735474 -0.0 0.0 0.0 2.221662998199463 -0.7334509491920471 -0.20832103490829468 -0.0 0.0 -0.0 -49.67100524902344 58.80679702758789 -19.181495666503906 27.950098037719727 -40.66991424560547 -85.13031005859375 0.04570329934358597 -6.0902605056762695 0.8591065406799316 -0.0 0.0 -0.0 -0.0 0.0 -0.0 -0.0 0.0 -0.0 -7.730902194976807 5.47491455078125 -0.4173222780227661 -0.0 0.0 -0.0 -2.905566453933716 0.9650754332542419 -0.10300818830728531 -0.0 0.0 -0.0 -10.278596878051758 0.7318810820579529 -0.026273518800735474 -0.0 0.0 -0.0 -2.221662998199463 -0.7334509491920471 0.20832103490829468 -0.0 0.0 -0.0 3.205568313598633 -34.9744987487793 -1.3677818775177002 -0.7037485837936401 52.675193786621094 1.1325695514678955 0.34763652086257935 -17.565597534179688 1.4203435182571411 0.0 0.0 0.0 -10.415674209594727 -34.19110107421875 -9.181452751159668 0.5986046195030212 51.22616958618164 -1.1630064249038696 3.6843883991241455 -16.532989501953125 8.60146427154541
-0.22779999999329448 78.02150249481201 0.5890000029467046 -0.21703626215457916 3.2256648540496826 4.720982551574707 -5.588379383087158 7.078967571258545 8.683064460754395 1.0548330545425415 -6.505134582519531 2.4224774837493896 -6.260401248931885 11.608199119567871 -6.4172468185424805 7.395805835723877 -22.063499450683594 -10.753388404846191 -0.0 0.0 -0.0 -0.0 0.0 -0.0 -0.0 0.0 -0.0 -21.456098556518555 41.443904876708984 86.75511169433594 -28.433494567871094 -35.64409255981445 76.41389465332031 -0.004209225997328758 -1.8528693914413452 -0.26029840111732483 -0.0 0.0 -0.0 -0.0 0.0 -0.0 -0.0 0.0 -0.0 7.730902194976807 5.47491455078125 0.4173222780227661 -0.0 0.0 -0.0 2.905566453933716 0.9650754332542419 0.10300818830728531 -0.0 0.0 -0.0 10.278596878051758 0.7318810820579529 0.026273518800735474 -0.0 0.0 -0.0 2.221662998199463 -0.7334509491920471 -0.20832103490829468 -0.0 0.0 -0.0 -51.236305236816406 59.65530014038086 -16.676589965820312 27.863204956054688 -41.081695556640625 -85.8827896118164 0.051176249980926514 -5.492007255554199 0.774985671043396 -0.0 0.0 -0.0 -0.0 0.0 -0.0 -0.0 0.0 -0.0 -7.730902194976807 5.47491455078125 -0.4173222780227661 -0.0 0.0 -0.0 -2.905566453933716 0.9650754332542419 -0.10300818830728531 -0.0 0.0 -0.0 -10.278596878051758 0.7318810820579529 -0.026273518800735474 -0.0 0.0 -0.0 -2.221662998199463 -0.7334509491920471 0.20832103490829468 -0.0 0.0 -0.0 3.363373041152954 -34.78529739379883 -1.3795512914657593 -0.7022087574005127 52.662193298339844 1.1297975778579712 0.3953935205936432 -17.703113555908203 1.5305949449539185 0.0 0.0 0.0 -10.212906837463379 -34.13990783691406 -9.06479549407959 0.6052759885787964 51.41306686401367 -1.1719470024108887 3.7486493587493896 -16.68729019165039 8.709654808044434
-0.2779999980702996 77.99040079116821 0.7270000060088933 -0.30803972482681274 3.1957006454467773 4.630379676818848 -5.3166961669921875 7.029649257659912 8.73082447052002 0.8547914624214172 -6.565298080444336 2.429523229598999 -6.244826793670654 11.538780212402344 -6.472029209136963 7.38947868347168 -21.714412689208984 -10.873581886291504 -0.0 0.0 -0.0 -0.0 0.0 -0.0 -0.0 0.0 0.0 -22.442901611328125 41.838802337646484 87.99539184570312 -28.432695388793945 -35.89470672607422 76.83159637451172 -0.005669666454195976 -2.1501688957214355 -0.3021242618560791 0.0 0.0 0.0 0.0 0.0 0.0 0.0 0.0 0.0 7.730902194976807 5.47491455078125 0.4173222780227661 0.0 0.0 0.0 2.905566453933716 0.9650754332542419 0.10300818830728531 0.0 0.0 0.0 10.278596878051758 0.7318810820579529 0.026273518800735474 0.0 0.0 0.0 2.221662998199463 -0.7334509491920471 -0.20832103490829468 -0.0 0.0 0.0 -52.77459716796875 60.50190353393555 -14.177693367004395 27.77269744873047 -41.4778938293457 -86.61099243164062 0.03945675119757652 -5.6600341796875 0.7981682419776917 -0.0 -0.0 -0.0 -0.0 -0.0 -0.0 -0.0 -0.0 -0.0 -7.730902194976807 5.47491455078125 -0.4173222780227661 -0.0 -0.0 -0.0 -2.905566453933716 0.9650754332542419 -0.10300818830728531 -0.0 -0.0 -0.0 -10.278596878051758 0.7318810820579529 -0.026273518800735474 -0.0 -0.0 -0.0 -2.221662998199463 -0.7334509491920471 0.20832103490829468 -0.0 0.0 -0.0 3.5161163806915283 -34.561092376708984 -1.4444173574447632 -0.7012055516242981 52.64611053466797 1.1281895637512207 0.4518551230430603 -17.820194244384766 1.6568477153778076 0.0 0.0 0.0 -10.027326583862305 -34.04199981689453 -9.032794952392578 0.6042323708534241 51.60041809082031 -1.178001880645752 3.8439595699310303 -16.84930419921875 8.893996238708496
